{
  "accessors": [
    {
      "name": "14025_Soda_Can_sg_1_0_positions",
      "componentType": 5126,
      "count": 12456,
      "min": [
        -3.457200050354004,
        -3.457200050354004,
        0.0142000000923872
      ],
      "max": [
        3.457200050354004,
        3.457200050354004,
        13.303899765014648
      ],
      "type": "VEC3",
      "bufferView": 0,
      "byteOffset": 0
    },
    {
      "name": "14025_Soda_Can_sg_1_0_normals",
      "componentType": 5126,
      "count": 12456,
      "min": [
        -0.9999809265136719,
        -0.999995231628418,
        -0.9999327659606934
      ],
      "max": [
        0.9999756813049316,
        0.999997079372406,
        1
      ],
      "type": "VEC3",
      "bufferView": 1,
      "byteOffset": 0
    },
    {
      "name": "14025_Soda_Can_sg_1_0_texcoords",
      "componentType": 5126,
      "count": 12456,
      "min": [
        0.0010000000474974513,
        0.0038999998942017555
      ],
      "max": [
        0.9952999949455261,
        0.9958000183105469
      ],
      "type": "VEC2",
      "bufferView": 2,
      "byteOffset": 0
    },
    {
      "name": "14025_Soda_Can_sg_1_0_indices",
      "componentType": 5123,
      "count": 69042,
      "min": [
        0
      ],
      "max": [
        12455
      ],
      "type": "SCALAR",
      "bufferView": 3,
      "byteOffset": 0
    }
  ],
  "asset": {
    "generator": "obj2gltf",
    "version": "2.0"
  },
  "buffers": [
    {
      "name": "14025_Soda_Can_v3_l3",
      "byteLength": 1157820,
      "uri": "data:application/octet-stream;base64,"
    }
  ],
  "bufferViews": [
    {
      "name": "bufferView_0",
      "buffer": 0,
      "byteLength": 149472,
      "byteOffset": 0,
      "byteStride": 12,
      "target": 34962
    },
    {
      "name": "bufferView_1",
      "buffer": 0,
      "byteLength": 149472,
      "byteOffset": 149472,
      "byteStride": 12,
      "target": 34962
    },
    {
      "name": "bufferView_2",
      "buffer": 0,
      "byteLength": 99648,
      "byteOffset": 298944,
      "byteStride": 8,
      "target": 34962
    },
    {
      "name": "bufferView_3",
      "buffer": 0,
      "byteLength": 138084,
      "byteOffset": 398592,
      "target": 34963
    },
    {
      "buffer": 0,
      "byteOffset": 536676,
      "byteLength": 621143
    }
  ],
  "images": [
    {
      "name": "14025_Soda_Can_diff",
      "mimeType": "image/jpeg",
      "bufferView": 4
    }
  ],
  "materials": [
    {
      "name": "14025_Soda_Can",
      "pbrMetallicRoughness": {
        "baseColorTexture": {
          "index": 0
        },
        "baseColorFactor": [
          1,
          1,
          1,
          1
        ],
        "metallicFactor": 0,
        "roughnessFactor": 0.99
      },
      "emissiveFactor": [
        0,
        0,
        0
      ],
      "alphaMode": "OPAQUE",
      "doubleSided": false
    }
  ],
  "meshes": [
    {
      "name": "14025_Soda_Can_sg_1",
      "primitives": [
        {
          "attributes": {
            "POSITION": 0,
            "NORMAL": 1,
            "TEXCOORD_0": 2
          },
          "indices": 3,
          "material": 0,
          "mode": 4
        }
      ]
    }
  ],
  "nodes": [
    {
      "name": "14025_Soda_Can_sg",
      "mesh": 0
    }
  ],
  "samplers": [
    {
      "wrapS": 10497,
      "wrapT": 10497
    }
  ],
  "scene": 0,
  "scenes": [
    {
      "nodes": [
        0
      ]
    }
  ],
  "textures": [
    {
      "name": "14025_Soda_Can_diff",
      "sampler": 0,
      "source": 0
    }
  ]
}
